<?xml version="1.0" encoding="utf-8"?>
<!-- Generator: Adobe Illustrator 24.0.0, SVG Export Plug-In . SVG Version: 6.00 Build 0)  -->
<svg version="1.1" id="Camada_1" xmlns="http://www.w3.org/2000/svg" xmlns:xlink="http://www.w3.org/1999/xlink" x="0px" y="0px"
	 viewBox="0 0 504 504" style="enable-background:new 0 0 504 504;" xml:space="preserve">
<style type="text/css">
	.st0{fill:#ED6D61;}
</style>
<g>
	<path class="st0" d="M252,0.1c-68.4,0-77,0.3-103.9,1.5C121.3,2.8,103,7.1,87,13.3c-16.6,6.4-30.6,15.1-44.6,29.1
		c-14,14-22.6,28.1-29.1,44.6c-6.2,16-10.5,34.3-11.7,61.2C0.4,175,0.1,183.6,0.1,252c0,68.4,0.3,77,1.5,103.9
		C2.8,382.7,7.1,401,13.3,417c6.4,16.6,15.1,30.6,29.1,44.6c14,14,28.1,22.6,44.6,29.1c16,6.2,34.3,10.5,61.2,11.7
		c26.9,1.2,35.4,1.5,103.9,1.5c68.4,0,77-0.3,103.9-1.5c26.8-1.2,45.1-5.5,61.2-11.7c16.6-6.4,30.6-15.1,44.6-29.1
		c14-14,22.6-28.1,29.1-44.6c6.2-16,10.5-34.3,11.7-61.2c1.2-26.9,1.5-35.4,1.5-103.9c0-68.4-0.3-77-1.5-103.9
		c-1.2-26.8-5.5-45.1-11.7-61.2c-6.4-16.6-15.1-30.6-29.1-44.6c-14-14-28.1-22.6-44.6-29.1c-16-6.2-34.3-10.5-61.2-11.7
		C329,0.4,320.4,0.1,252,0.1L252,0.1L252,0.1z M252,45.5c67.3,0,75.2,0.3,101.8,1.5c24.6,1.1,37.9,5.2,46.8,8.7
		c11.8,4.6,20.2,10,29,18.8c8.8,8.8,14.3,17.2,18.8,29c3.4,8.9,7.6,22.2,8.7,46.8c1.2,26.6,1.5,34.5,1.5,101.8
		c0,67.3-0.3,75.2-1.5,101.8c-1.1,24.6-5.2,37.9-8.7,46.8c-4.6,11.8-10,20.2-18.8,29c-8.8,8.8-17.2,14.3-29,18.8
		c-8.9,3.4-22.2,7.6-46.8,8.7c-26.6,1.2-34.5,1.5-101.8,1.5c-67.3,0-75.2-0.3-101.8-1.5c-24.6-1.1-37.9-5.2-46.8-8.7
		c-11.8-4.6-20.2-10-29-18.8c-8.8-8.8-14.3-17.2-18.8-29c-3.4-8.9-7.6-22.2-8.7-46.8c-1.2-26.6-1.5-34.5-1.5-101.8
		c0-67.3,0.3-75.2,1.5-101.8c1.1-24.6,5.2-37.9,8.7-46.8c4.6-11.8,10-20.2,18.8-29c8.8-8.8,17.2-14.3,29-18.8
		c8.9-3.4,22.2-7.6,46.8-8.7C176.8,45.7,184.7,45.5,252,45.5"/>
	<path class="st0" d="M252,336c-46.4,0-84-37.6-84-84c0-46.4,37.6-84,84-84c46.4,0,84,37.6,84,84C336,298.4,298.4,336,252,336
		L252,336z M252,122.6c-71.4,0-129.4,57.9-129.4,129.4c0,71.4,57.9,129.4,129.4,129.4c71.4,0,129.4-57.9,129.4-129.4
		C381.4,180.6,323.4,122.6,252,122.6L252,122.6z"/>
	<path class="st0" d="M416.7,117.5c0,16.7-13.5,30.2-30.2,30.2c-16.7,0-30.2-13.5-30.2-30.2c0-16.7,13.5-30.2,30.2-30.2
		C403.2,87.3,416.7,100.8,416.7,117.5L416.7,117.5z"/>
</g>
</svg>
